On,Off,Pitch,Velocity
1628571.7000000002,1824490.1,62,127
1946939.1,3951021.0666666664,71,127
4165306.8166666664,4261225.199999999,74,120
4414286.449999999,4546939.533333333,74,125
4665306.9,4763266.1,71,127
4918368.166666666,5044898.800000001,71,127
5177551.883333333,5287755.983333332,69,93
5432653.966666667,5555102.966666667,69,125
5655102.983333332,5759184.633333333,67,122
5804082.6,7775511.5,69,127
8093878.899999999,8193878.916666667,74,127
8330613.633333333,8457144.266666666,74,127
8579593.266666666,8679593.283333335,71,126
8830613.716666665,8965307.616666667,71,127
9071430.083333332,9189797.45,69,120
9322450.533333335,9442858.716666665,69,126
9548981.183333334,9651022.016666666,67,127
9708164.883333333,11630614.183333334,69,127
12006124.45,12104083.649999999,74,127
12244900.0,12371430.633333333,74,127
12481634.733333334,12581634.75,71,127
12744900.083333332,12859185.816666666,71,127
12997961.350000001,13097961.366666667,69,104
13246940.983333334,13359185.899999999,69,126
13477553.266666666,13581634.916666668,67,125
13734696.166666668,14916329.016666666,71,127
15200002.533333335,15497961.766666666,66,127
15559186.266666666,17048982.43333333,64,127
17161227.35,17469390.666666664,66,127
17653064.166666664,17924492.78333333,71,127
18167349.96666667,18475513.28333333,71,127
18644901.06666667,18944901.116666667,70,127
19112248.083333336,19420411.4,69,127
19608166.53333333,21559187.266666666,74,127
21804085.266666666,21904085.28333333,74,127
22044901.633333333,22163269.0,74,127
22289799.633333333,22400003.733333334,73,127
22548983.35,22679595.616666667,72,127
22773473.18333333,22885718.1,71,122
23028575.266666666,23169391.616666667,70,127
23273473.266666666,23379595.733333334,71,110
23428575.333333336,25495922.616666667,74,127
25728575.71666667,25828575.733333334,74,127
25977555.35,26112249.25,74,121
26130616.6,26222453.35,73,126
26361228.883333333,26461228.9,72,127
26597963.616666667,26722453.43333333,71,115
26842861.616666667,26940820.81666667,70,127
27085718.799999997,27310208.633333333,71,127
27436739.266666666,29357147.75,74,127
29628576.366666667,29726535.56666667,74,127
29875515.18333333,30022453.983333334,74,127
30036739.700000003,30142862.166666664,73,116
30271433.616666667,30375515.266666666,72,127
30518372.43333333,30761229.616666667,71,127
30895923.516666666,31004086.799999997,70,127
31112250.083333336,31224495.0,71,127
31375515.433333334,34863271.11666666,72,127
35302046.7,37267353.150000006,72,127
37397965.41666667,37504087.88333334,72,127
37646945.05,37793883.849999994,72,127
37891843.05,38012251.233333334,71,127
38114292.06666666,38257149.233333334,71,122
38367353.33333333,38624496.233333334,69,124
38708169.71666667,38830618.71666667,67,124
38934700.36666666,39012251.400000006,66,127
39197965.71666667,41193884.41666667,69,127
41397966.08333333,41522455.900000006,67,124
41655108.983333334,41773476.349999994,69,115
41889802.900000006,41993884.55,71,127
42153068.25,42404088.7,74,127
42510211.16666667,42712252.016666666,71,127
42844905.099999994,42948986.75,67,127
43130619.43333334,44924497.28333333,67,127
45089803.43333334,45361232.05,69,127
45469395.33333333,45593885.150000006,69,127
45793885.18333334,45906130.099999994,69,127
46063272.983333334,46624497.56666666,69,127
46651028.18333334,46940824.150000006,67,126
47034701.71666667,48246946.81666666,71,127
48504089.71666667,48800008.13333334,66,127
48885722.43333334,50414294.11666666,64,127
50459192.08333333,50802049.28333333,66,127
50859192.150000006,52304090.349999994,71,127
52428580.16666667,52675518.983333334,66,127
52797967.983333334,53851029.38333334,64,127
54255111.08333333,54295927.41666667,66,104
54375519.266666666,54497968.266666666,69,122
54493886.63333334,54612254.0,67,91
54597968.28333333,54724498.91666667,66,121
54726539.733333334,54818376.483333334,64,119
54869396.900000006,54957152.016666666,62,127
55118376.53333333,55179601.03333333,63,127
55369396.983333334,55453070.46666667,64,127
55859192.983333334,55967356.266666666,62,121
56102050.16666667,56138784.86666666,63,104
56228580.8,56316335.91666667,64,125
56459193.08333333,56553070.650000006,64,127
56589805.349999994,56655111.483333334,63,127
56855111.516666666,56965315.61666666,62,125
57079601.349999994,57146948.3,63,127
57342866.7,57457152.43333334,64,125
57808172.900000006,57918377.0,62,117
58048989.266666666,58093887.233333334,63,94
58187764.8,58275519.91666667,64,113
58428581.16666667,58546948.53333333,62,127
58663275.08333333,58775520.0,71,127
88191851.43333334,91679607.11666667,72,127
92118382.69999999,94083689.15,72,127
94214301.41666666,94320423.88333333,72,127
94463281.05000001,94610219.85,72,127
94708179.05000001,94828587.23333332,71,127
94930628.06666666,95073485.23333332,71,122
95183689.33333334,95440832.23333332,69,124
95524505.71666667,95646954.71666667,67,124
95751036.36666667,95828587.4,66,127
96014301.71666667,98010220.41666666,69,127
98214302.08333334,98338791.9,67,124
98471444.98333332,98589812.35,69,115
98706138.9,98810220.55000001,71,127
98969404.25,99220424.69999999,74,127
99326547.16666666,99528588.01666668,71,127
99661241.1,99765322.75,67,127
99946955.43333334,101740833.28333333,67,127
101906139.43333334,102177568.05000001,69,127
102285731.33333334,102410221.15,69,127
102610221.18333334,102722466.1,69,127
102879608.98333332,103440833.56666666,69,127
103467364.18333334,103757160.15,67,126
103851037.71666667,105063282.81666666,71,127
105320425.71666667,105616344.13333333,66,127
105702058.43333334,107230630.11666667,64,127
107275528.08333334,107618385.28333333,66,127
107675528.15,109120426.35,71,127
109244916.16666666,109491854.98333332,66,127
109614303.98333332,110667365.38333333,64,127
111071447.08333334,111112263.41666666,66,104
111191855.26666668,111314304.26666668,69,122
111310222.63333333,111428590.0,67,91
111414304.28333333,111540834.91666666,66,121
111542875.73333332,111634712.48333332,64,119
111685732.9,111773488.01666668,62,127
111934712.53333333,111995937.03333333,63,127
112185732.98333332,112269406.46666667,64,127
112675528.98333332,112783692.26666668,62,121
112918386.16666666,112955120.86666667,63,104
113044916.80000001,113132671.91666666,64,125
113275529.08333334,113369406.65,64,127
113406141.35,113471447.48333332,63,127
113671447.51666668,113781651.61666667,62,125
113895937.35,113963284.30000001,63,127
114159202.69999999,114273488.43333334,64,125
114671447.68333334,114806141.58333334,62,127
114904100.78333333,115016345.69999999,63,127
115053080.4,115181651.85,64,122
115289815.13333333,115387774.33333334,63,127
115406141.68333334,115520427.41666666,62,118
115675529.48333332,117408182.83333334,67,127
