On,Off,Pitch,Velocity
2627500.0,2732499.9999999995,63,115
2722500.0,2927500.0,65,97
2927500.0,3002500.0,63,91
3025000.0,3182499.9999999995,70,116
3237500.0,3537500.0,70,114
3620000.0,3812500.0,65,104
3835000.0,4025000.0,67,103
4015000.0,4210000.0,65,106
4210000.0,4830000.0,72,106
5017500.0,5095000.0,70,120
5115000.0,5267500.0,72,100
5322500.0,5362500.0,70,98
5425000.0,5572500.0,75,122
5637500.0,5842500.0,75,123
5935000.000000001,5985000.0,74,67
6015000.0,6167500.0,77,114
6220000.0,6412500.0,75,115
6410000.0,6560000.0,72,99
6635000.0,6755000.0,67,94
6745000.0,6842500.0,66,108
6837500.0,7317500.0,65,101
7430000.0,7537500.0,63,119
7535000.0,7712500.0,65,88
7725000.0,7807500.0,63,97
7830000.0,7972500.0,70,108
8037500.0,8357500.0,70,116
8425000.0,8607500.0,65,98
8625000.0,8820000.0,67,99
8807500.0,9015000.0,65,88
9005000.0,9162500.0,72,105
9310000.0,9467500.0,70,115
9520000.0,11960000.0,67,109
12215000.0,12335000.0,63,110
12325000.0,12550000.0,65,93
12522500.0,12617499.999999998,63,98
12625000.0,12785000.0,70,107
12847500.0,13195000.0,70,105
13225000.0,13420000.0,65,103
13435000.0,13567500.0,67,102
13547500.0,13732500.0,65,102
13735000.0,14592500.0,72,108
14620000.0,14732500.0,70,112
14730000.0,14915000.0,72,86
14930000.0,14982500.000000002,70,77
15015000.0,15190000.0,75,116
15240000.0,15402500.0,75,118
15517500.0,15579999.999999998,74,89
15612500.0,15802500.0,77,110
15822500.0,16022500.0,75,110
16015000.0,16162500.0,72,99
16237500.0,16342500.0,67,92
16335000.0,16437500.0,66,103
16432500.0,16895000.0,65,102
17022500.0,17097500.0,63,119
17120000.0,17275000.0,65,67
17307500.0,17405000.0,63,88
17420000.0,17562500.0,70,114
17630000.0,17962500.0,70,110
18020000.0,18207500.0,65,104
18232500.0,18335000.0,67,74
18312500.0,18512500.0,65,100
18527500.0,18895000.0,72,109
18910000.0,19110000.0,70,107
19137500.0,21272500.0,63,104
21845000.0,21977500.000000004,75,122
22130000.0,22225000.0,72,90
22230000.0,22435000.0,75,116
22450000.0,22890000.0,72,104
23035000.0,23187500.0,75,120
23322499.999999996,23412500.0,72,98
23430000.0,23637500.0,75,121
23642500.0,23937500.0,72,110
24237500.0,24360000.0,75,121
24525000.0,24634999.999999996,72,102
24630000.0,24827500.000000004,75,116
24837500.0,25195000.0,72,101
25430000.0,25572499.999999996,76,117
25725000.0,25782500.0,72,49
25812500.0,26027500.000000004,76,111
26040000.0,26310000.0,72,108
26635000.0,26930000.0,77,116
27025000.0,27192500.0,77,108
27312500.0,27487500.0,77,104
27615000.0,27784999.999999996,77,104
27905000.0,28065000.0,75,115
28222500.0,28377500.0,74,116
28520000.0,28702500.0,72,111
28732500.0,29330000.0,70,113
29402500.000000004,29477500.000000004,71,103
29432500.0,29892500.0,72,95
30012500.0,30065000.0,66,121
30057500.0,30535000.0,67,102
30537500.0,31217500.0,65,105
31425000.0,31530000.0,63,119
31520000.0,31725000.0,65,99
31737500.0,31820000.0,63,76
31834999.999999996,31990000.000000004,70,113
32052500.0,32400000.0,70,114
32422500.0,32610000.0,65,108
32627500.000000004,32742500.0,67,101
32725000.0,32937500.0,65,90
32942500.0,33645000.0,72,114
33825000.0,33922500.0,70,121
33930000.0,34120000.0,72,65
34122500.0,34187500.0,70,88
34235000.0,34380000.0,75,121
34452500.0,34615000.0,75,116
34712500.0,34785000.0,74,102
34820000.0,34985000.0,77,111
35017500.0,35177500.0,75,105
35202500.0,35352500.0,72,106
35422500.0,35542500.0,67,84
35522500.0,35615000.0,66,97
35612500.0,36052500.0,65,104
36230000.0,36335000.0,63,116
36332500.0,36537500.0,65,85
36527500.0,36600000.0,63,93
36620000.0,36782500.0,70,111
36845000.0,37162500.0,70,117
37230000.0,37410000.0,65,96
37427500.0,37540000.0,67,105
37532500.0,37695000.0,65,91
37715000.0,38090000.0,72,110
38112500.0,38305000.0,70,103
38330000.0,40580000.00000001,75,114
79427500.0,79532500.0,63,115
79522500.0,79727500.0,65,97
79727500.0,79802500.0,63,91
79825000.0,79982500.0,70,116
80037500.0,80337500.0,70,114
80420000.0,80612500.0,65,104
80635000.00000001,80825000.0,67,103
80815000.0,81010000.00000001,65,106
81010000.00000001,81630000.0,72,106
81817500.0,81895000.0,70,120
81915000.0,82067500.0,72,100
82122500.0,82162500.0,70,98
82225000.0,82372500.0,75,122
82437500.0,82642500.0,75,123
82735000.00000001,82785000.0,74,67
82815000.0,82967500.0,77,114
83020000.0,83212500.0,75,115
83210000.0,83360000.0,72,99
83435000.0,83555000.0,67,94
83545000.0,83642500.0,66,108
83637500.0,84117500.0,65,101
84230000.0,84337500.0,63,119
84335000.0,84512500.0,65,88
84525000.0,84607500.0,63,97
84630000.0,84772500.0,70,108
84837500.0,85157500.0,70,116
85225000.0,85407500.0,65,98
85425000.0,85620000.0,67,99
85607500.0,85815000.0,65,88
85805000.0,85962500.0,72,105
86110000.00000001,86267500.0,70,115
86320000.0,88760000.0,67,109
89014999.99999999,89135000.0,63,110
89125000.0,89350000.0,65,93
89322500.0,89417500.0,63,98
89425000.0,89585000.0,70,107
89647500.0,89995000.0,70,105
90025000.0,90220000.0,65,103
90235000.00000001,90367500.0,67,102
90347500.00000001,90532500.0,65,102
90535000.00000001,91392500.0,72,108
91420000.0,91532500.0,70,112
91530000.0,91714999.99999999,72,86
91730000.0,91782500.0,70,77
91815000.0,91990000.0,75,116
92040000.0,92202499.99999999,75,118
92317500.0,92380000.0,74,89
92412500.0,92602500.0,77,110
92622500.0,92822500.00000001,75,110
92815000.0,92962500.0,72,99
93037500.0,93142500.0,67,92
93135000.0,93237500.0,66,103
93232500.0,93695000.0,65,102
93822500.0,93897500.0,63,119
93920000.0,94075000.0,65,67
94107500.0,94205000.0,63,88
94220000.0,94362500.0,70,114
94430000.0,94762500.0,70,110
94820000.0,95007500.0,65,104
95032500.0,95135000.0,67,74
95112500.0,95312500.0,65,100
95327500.0,95695000.0,72,109
95710000.00000001,95910000.0,70,107
95937500.0,98072500.00000001,63,104
98645000.0,98777500.0,75,122
98930000.0,99025000.0,72,90
99030000.0,99235000.00000001,75,116
99250000.0,99690000.0,72,104
99835000.00000001,99987500.0,75,120
100122500.0,100212500.0,72,98
100230000.0,100437500.0,75,121
100442500.0,100737500.0,72,110
101037500.0,101160000.0,75,121
101325000.0,101435000.0,72,102
101430000.0,101627500.0,75,116
101637500.0,101995000.0,72,101
102230000.0,102372500.0,76,117
102525000.0,102582500.0,72,49
102612500.0,102827500.0,76,111
102840000.0,103110000.0,72,108
103435000.00000001,103730000.0,77,116
103825000.0,103992500.0,77,108
104112500.0,104287500.0,77,104
104415000.0,104585000.0,77,104
104705000.0,104865000.0,75,115
105022500.0,105177499.99999999,74,116
105320000.0,105502500.0,72,111
105532500.0,106130000.0,70,113
106202500.0,106277500.0,71,103
106232500.0,106692500.0,72,95
106812500.0,106864999.99999999,66,121
106857500.0,107335000.00000001,67,102
107337500.0,108017500.0,65,105
108225000.0,108330000.0,63,119
108320000.0,108525000.0,65,99
108537500.0,108620000.0,63,76
108635000.0,108790000.0,70,113
108852499.99999999,109200000.0,70,114
109222500.0,109410000.0,65,108
109427500.0,109542500.0,67,101
109525000.0,109737500.0,65,90
109742500.0,110445000.0,72,114
110625000.0,110722500.0,70,121
110730000.0,110920000.0,72,65
110922500.0,110987500.0,70,88
111035000.0,111180000.0,75,121
111252499.99999999,111415000.0,75,116
111512500.0,111585000.0,74,102
111620000.0,111785000.0,77,111
111817500.0,111977500.0,75,105
112002499.99999999,112152499.99999999,72,106
112222500.0,112342500.0,67,84
112322500.00000001,112414999.99999999,66,97
112412500.0,112852500.0,65,104
113030000.0,113135000.0,63,116
113132500.0,113337500.0,65,85
113327500.0,113400000.0,63,93
113420000.0,113582500.0,70,111
113645000.0,113962500.0,70,117
114030000.0,114210000.0,65,96
114227500.0,114340000.0,67,105
114332500.0,114495000.0,65,91
114514999.99999999,114889999.99999999,72,110
114912500.0,115105000.0,70,103
115130000.0,117380000.0,75,114
117827500.0,117947500.00000001,63,107
117947500.00000001,118125000.0,65,84
118112500.0,118217500.0,63,87
118257500.0,118472500.00000001,72,107
118485000.0,118577500.0,67,76
118714999.99999999,119997500.0,70,123
